<?xml version="1.0" encoding="UTF-8"?>
<svg id="Camada_1" data-name="Camada 1" xmlns="http://www.w3.org/2000/svg" viewBox="0 0 512 512">
  <defs>
    <style>
      .cls-1 {
        fill: #fff;
      }
    </style>
  </defs>
  <rect x="0" y="0" width="512" height="512" rx="167.66" ry="167.66"/>
  <path class="cls-1" d="M266.04,166.2l-10.04,15.86-10.06-15.89c-10.06-15.91-27.32-25.38-46.15-25.38s-36.09,9.5-46.15,25.38l-76.72,121.21c-10.81,17.07-11.46,37.84-1.72,55.57,9.74,17.71,27.64,28.28,47.87,28.28h265.87c20.21,0,38.1-10.57,47.84-28.28,4.62-8.35,6.9-17.39,6.9-26.38,0-10.09-2.87-20.15-8.59-29.19l-76.72-121.21c-10.06-15.91-27.32-25.41-46.13-25.41s-36.12,9.5-46.18,25.41l-.03.03ZM101.98,328.22c-2.04-3.68-3.03-7.65-3.03-11.62,0-4.45,1.26-8.88,3.78-12.85l76.72-121.21c4.51-7.11,11.91-11.19,20.34-11.19s15.83,4.08,20.34,11.19l17.79,28.09-48.6,76.77c-10.33,16.34-11.38,36.06-2.9,53.29h-63.38c-8.91,0-16.8-4.64-21.09-12.48h.03ZM235.48,340.7c-8.91,0-16.8-4.64-21.09-12.48-2.01-3.68-3.03-7.65-3.03-11.62,0-4.45,1.26-8.88,3.78-12.85l40.87-64.56,40.87,64.53c4.78,7.51,5.07,16.69.75,24.5-4.29,7.81-12.18,12.48-21.09,12.48h-41.06ZM332.53,182.54l76.72,121.21c4.78,7.51,5.07,16.66.75,24.5-4.29,7.81-12.18,12.45-21.09,12.45h-63.38c3.81-7.7,5.72-15.94,5.72-24.12,0-10.09-2.87-20.15-8.59-29.19l-48.6-76.74,17.76-28.07c4.51-7.11,11.94-11.22,20.37-11.22s15.83,4.08,20.34,11.19Z"/>
</svg>