<?xml version="1.0" encoding="UTF-8"?>
<svg id="Camada_1" data-name="Camada 1" xmlns="http://www.w3.org/2000/svg" viewBox="0 0 405.88 492.65">
  <defs>
    <style>
      .cls-1 {
        fill: #5a5aff;
        fill-rule: evenodd;
      }

      .cls-2 {
        fill: #fff;
      }
    </style>
  </defs>
  <path class="cls-2" d="M216.35,152.23l164.15,226.99h-83.43l-131.1-180.94-95.89,87.22v93.72H2.36V0h67.72v193.94l55.8-50.92,50.38-46.05L281.9,0h100.22l-165.77,152.23Z"/>
  <g>
    <path class="cls-2" d="M41.48,448.54l31.82,44h-16.17l-25.41-35.08-18.59,16.91v18.17H0v-73.51h13.13v37.6l10.82-9.87,9.77-8.93,20.48-18.8h19.43l-32.14,29.51Z"/>
    <path class="cls-2" d="M155.11,455.79c0,20.27-16.49,36.76-36.76,36.76s-36.76-16.49-36.76-36.76,16.49-36.76,36.76-36.76,36.76,16.49,36.76,36.76ZM141.98,455.79c0-13.02-10.61-23.63-23.63-23.63s-23.63,10.61-23.63,23.63,10.61,23.63,23.63,23.63,23.63-10.61,23.63-23.63Z"/>
    <path class="cls-2" d="M223.68,479.53v13.13h-37.28c-3.68,0-7.14-.84-10.29-2.42-4.62-2.31-8.4-6.09-10.61-10.71-1.58-3.15-2.42-6.62-2.42-10.29v-50.09h13.13v51.35c.63,4.62,4.31,8.3,8.93,8.93l38.54.11Z"/>
    <path class="cls-2" d="M234.18,492.55v-73.51h13.13v73.51h-13.13Z"/>
    <path class="cls-2" d="M328.49,419.03l-6.72,13.13-30.77,60.39-30.77-60.39-6.72-13.13h14.7l6.72,13.13,16.07,31.51,16.07-31.51,6.72-13.13h14.7Z"/>
    <path class="cls-2" d="M405.88,455.79c0,20.27-16.49,36.76-36.76,36.76s-36.76-16.49-36.76-36.76,16.49-36.76,36.76-36.76,36.76,16.49,36.76,36.76ZM392.76,455.79c0-13.02-10.61-23.63-23.63-23.63s-23.63,10.61-23.63,23.63,10.61,23.63,23.63,23.63,23.63-10.61,23.63-23.63Z"/>
  </g>
  <polygon class="cls-1" points="386.17 72.06 386.17 286.78 288.31 157.56 386.17 72.06"/>
</svg>