<?xml version="1.0" encoding="UTF-8"?>
<svg id="Camada_1" xmlns="http://www.w3.org/2000/svg" xmlns:serif="http://www.serif.com/" version="1.1" viewBox="0 0 730 320">
  <!-- Generator: Adobe Illustrator 30.2.1, SVG Export Plug-In . SVG Version: 2.1.1 Build 1)  -->
  <defs>
    <style>
      .st0 {
        fill: #5a5aff;
        fill-rule: evenodd;
      }

      .st1 {
        fill: #fff;
      }
    </style>
  </defs>
  <path class="st1" d="M125.07,139.64l89.42,123.64h-45.45l-71.4-98.55-52.23,47.51v51.04H8.5V56.72h36.88v105.64l30.4-27.73,27.45-25.09,57.55-52.82h54.6l-90.29,82.92h-.02Z"/>
  <g>
    <path class="st1" d="M326.34,143.26l34.5,47.72h-17.54l-27.56-38.04-20.16,18.33v19.7h-14.23v-79.72h14.23v40.77l11.73-10.7,10.59-9.68,22.21-20.38h21.07l-34.86,32h0l.02-.02Z"/>
    <path class="st1" d="M449.57,151.12c0,21.98-17.87,39.87-39.87,39.87s-39.87-17.87-39.87-39.87,17.87-39.87,39.87-39.87,39.87,17.87,39.87,39.87ZM435.32,151.12c0-14.12-11.51-25.62-25.62-25.62s-25.62,11.51-25.62,25.62,11.51,25.62,25.62,25.62,25.62-11.51,25.62-25.62Z"/>
    <path class="st1" d="M523.92,176.86v14.23h-40.42c-4,0-7.75-.91-11.16-2.63-5.01-2.51-9.11-6.61-11.51-11.62-1.71-3.41-2.63-7.18-2.63-11.16v-54.31h14.23v55.68c.68,5.01,4.67,9.01,9.68,9.68l41.79.12h.02Z"/>
    <path class="st1" d="M535.31,190.98v-79.72h14.23v79.72h-14.23Z"/>
    <path class="st1" d="M637.57,111.25l-7.28,14.23-33.37,65.49-33.37-65.49-7.28-14.23h15.94l7.28,14.23,17.43,34.16,17.43-34.16,7.28-14.23h15.94Z"/>
    <path class="st1" d="M721.5,151.12c0,21.98-17.87,39.87-39.87,39.87s-39.87-17.87-39.87-39.87,17.87-39.87,39.87-39.87,39.87,17.87,39.87,39.87ZM707.27,151.12c0-14.12-11.51-25.62-25.62-25.62s-25.62,11.51-25.62,25.62,11.51,25.62,25.62,25.62,25.62-11.51,25.62-25.62Z"/>
  </g>
  <polygon class="st0" points="217.57 95.97 217.57 212.93 164.26 142.54 217.57 95.97"/>
</svg>