<?xml version="1.0" encoding="UTF-8"?>
<svg id="Camada_1" data-name="Camada 1" xmlns="http://www.w3.org/2000/svg" viewBox="0 0 461.34 85.89">
  <defs>
    <style>
      .cls-1 {
        fill: #fff;
      }
    </style>
  </defs>
  <path class="cls-1" d="M73.69,9.47l-3.74,5.91-3.75-5.92C62.45,3.54,56.01,0,49,0s-13.45,3.54-17.2,9.46L3.2,54.63c-4.03,6.36-4.27,14.1-.64,20.71,3.63,6.6,10.3,10.54,17.84,10.54h99.08c7.53,0,14.2-3.94,17.83-10.54,1.72-3.11,2.57-6.48,2.57-9.83,0-3.76-1.07-7.51-3.2-10.88l-28.59-45.17c-3.75-5.93-10.18-9.47-17.19-9.47s-13.46,3.54-17.21,9.47ZM12.54,69.85c-.76-1.37-1.13-2.85-1.13-4.33,0-1.66.47-3.31,1.41-4.79L41.41,15.56c1.68-2.65,4.44-4.17,7.58-4.17s5.9,1.52,7.58,4.17l6.63,10.47-18.11,28.61c-3.85,6.09-4.24,13.44-1.08,19.86h-23.62c-3.32,0-6.26-1.73-7.86-4.65ZM62.3,74.5c-3.32,0-6.26-1.73-7.86-4.65-.75-1.37-1.13-2.85-1.13-4.33,0-1.66.47-3.31,1.41-4.79l15.23-24.06,15.23,24.05c1.78,2.8,1.89,6.22.28,9.13-1.6,2.91-4.54,4.65-7.86,4.65h-15.29ZM98.47,15.56l28.59,45.17c1.78,2.8,1.89,6.21.28,9.13-1.6,2.91-4.54,4.64-7.86,4.64h-23.62c1.42-2.87,2.13-5.94,2.13-8.99,0-3.76-1.07-7.51-3.2-10.88l-18.11-28.6,6.62-10.46c1.68-2.65,4.45-4.18,7.59-4.18s5.9,1.52,7.58,4.17Z"/>
  <g>
    <path class="cls-1" d="M163.46,60.55c-2.9-1.61-5.18-3.89-6.84-6.83-1.66-2.95-2.48-6.35-2.48-10.2s.85-7.25,2.55-10.2c1.7-2.95,4.02-5.23,6.97-6.83,2.95-1.61,6.23-2.41,9.86-2.41s6.91.81,9.86,2.41c2.95,1.61,5.27,3.89,6.97,6.83,1.7,2.95,2.55,6.35,2.55,10.2s-.87,7.25-2.62,10.2c-1.75,2.95-4.1,5.23-7.07,6.83-2.97,1.61-6.29,2.41-9.96,2.41s-6.89-.8-9.79-2.41ZM178.12,53.41c1.52-.84,2.73-2.1,3.64-3.77.91-1.68,1.36-3.72,1.36-6.12,0-3.58-.94-6.34-2.82-8.26-1.88-1.93-4.18-2.89-6.9-2.89s-5,.96-6.83,2.89c-1.84,1.93-2.75,4.68-2.75,8.26s.89,6.34,2.69,8.26c1.79,1.93,4.05,2.89,6.77,2.89,1.72,0,3.34-.42,4.86-1.26Z"/>
    <path class="cls-1" d="M231.68,28.38c2.77,2.83,4.15,6.79,4.15,11.87v22.1h-9.52v-20.81c0-2.99-.75-5.29-2.25-6.9-1.5-1.61-3.54-2.41-6.12-2.41s-4.71.81-6.22,2.41c-1.52,1.61-2.28,3.91-2.28,6.9v20.81h-9.52V24.67h9.52v4.69c1.27-1.63,2.89-2.91,4.86-3.84,1.97-.93,4.14-1.39,6.5-1.39,4.49,0,8.12,1.42,10.88,4.25Z"/>
    <path class="cls-1" d="M279.62,46.37h-27.54c.23,2.72,1.18,4.85,2.86,6.39,1.68,1.54,3.74,2.31,6.19,2.31,3.54,0,6.05-1.52,7.55-4.56h10.27c-1.09,3.63-3.17,6.61-6.26,8.94-3.08,2.34-6.87,3.5-11.36,3.5-3.63,0-6.88-.8-9.76-2.41-2.88-1.61-5.12-3.89-6.73-6.83-1.61-2.95-2.41-6.35-2.41-10.2s.79-7.32,2.38-10.27c1.59-2.95,3.81-5.21,6.67-6.8,2.86-1.59,6.14-2.38,9.86-2.38s6.79.77,9.62,2.31c2.83,1.54,5.03,3.73,6.6,6.56,1.56,2.83,2.35,6.09,2.35,9.76,0,1.36-.09,2.58-.27,3.67ZM270.03,39.98c-.05-2.45-.93-4.41-2.65-5.88-1.72-1.47-3.83-2.21-6.33-2.21-2.36,0-4.34.71-5.95,2.14s-2.6,3.41-2.96,5.95h17.89Z"/>
    <path class="cls-1" d="M301.42,25.76c2.15-1.13,4.61-1.7,7.38-1.7,3.22,0,6.13.79,8.74,2.38,2.61,1.59,4.67,3.84,6.19,6.77,1.52,2.92,2.28,6.31,2.28,10.17s-.76,7.27-2.28,10.24c-1.52,2.97-3.58,5.27-6.19,6.9-2.61,1.63-5.52,2.45-8.74,2.45-2.81,0-5.27-.56-7.38-1.67-2.11-1.11-3.8-2.55-5.07-4.32v5.37h-9.52V12.02h9.52v18.16c1.22-1.81,2.91-3.29,5.07-4.42ZM314.88,37.49c-.93-1.65-2.15-2.91-3.67-3.77-1.52-.86-3.16-1.29-4.93-1.29s-3.34.44-4.86,1.33c-1.52.88-2.74,2.17-3.67,3.84-.93,1.68-1.39,3.65-1.39,5.92s.46,4.24,1.39,5.92c.93,1.68,2.15,2.96,3.67,3.84,1.52.88,3.14,1.33,4.86,1.33s3.41-.45,4.93-1.36c1.52-.91,2.74-2.2,3.67-3.88.93-1.68,1.39-3.67,1.39-5.98s-.46-4.23-1.39-5.88Z"/>
    <path class="cls-1" d="M347.26,25.83c1.97-1.13,4.23-1.7,6.77-1.7v10h-2.52c-2.99,0-5.25.7-6.77,2.11-1.52,1.41-2.28,3.85-2.28,7.35v18.77h-9.52V24.67h9.52v5.85c1.22-1.99,2.82-3.56,4.79-4.69Z"/>
    <path class="cls-1" d="M360.25,33.24c1.52-2.95,3.58-5.21,6.19-6.8,2.61-1.59,5.52-2.38,8.74-2.38,2.81,0,5.27.57,7.38,1.7,2.11,1.13,3.8,2.56,5.07,4.28v-5.37h9.59v37.68h-9.59v-5.51c-1.22,1.77-2.91,3.23-5.07,4.39-2.15,1.16-4.64,1.73-7.45,1.73-3.17,0-6.06-.82-8.67-2.45-2.61-1.63-4.67-3.93-6.19-6.9-1.52-2.97-2.28-6.38-2.28-10.24s.76-7.19,2.28-10.13ZM386.26,37.56c-.91-1.65-2.13-2.92-3.67-3.81-1.54-.88-3.2-1.33-4.96-1.33s-3.4.43-4.9,1.29c-1.5.86-2.71,2.12-3.64,3.77-.93,1.66-1.39,3.62-1.39,5.88s.46,4.25,1.39,5.95c.93,1.7,2.15,3,3.67,3.91,1.52.91,3.14,1.36,4.86,1.36s3.42-.44,4.96-1.33c1.54-.88,2.76-2.15,3.67-3.81.91-1.65,1.36-3.64,1.36-5.95s-.45-4.29-1.36-5.95Z"/>
    <path class="cls-1" d="M407.17,18.59c-1.11-1.06-1.67-2.39-1.67-3.98s.55-2.91,1.67-3.98c1.11-1.06,2.5-1.6,4.18-1.6s3.07.53,4.18,1.6c1.11,1.07,1.67,2.39,1.67,3.98s-.56,2.91-1.67,3.98c-1.11,1.07-2.51,1.6-4.18,1.6s-3.07-.53-4.18-1.6ZM416.05,24.67v37.68h-9.52V24.67h9.52Z"/>
    <path class="cls-1" d="M457.19,28.38c2.76,2.83,4.15,6.79,4.15,11.87v22.1h-9.52v-20.81c0-2.99-.75-5.29-2.24-6.9-1.5-1.61-3.54-2.41-6.12-2.41s-4.7.81-6.22,2.41c-1.52,1.61-2.28,3.91-2.28,6.9v20.81h-9.52V24.67h9.52v4.69c1.27-1.63,2.89-2.91,4.86-3.84,1.97-.93,4.14-1.39,6.49-1.39,4.49,0,8.12,1.42,10.88,4.25Z"/>
  </g>
</svg>