<?xml version="1.0" encoding="UTF-8"?>
<svg id="Layer_1" xmlns="http://www.w3.org/2000/svg" xmlns:xlink="http://www.w3.org/1999/xlink" xmlns:serif="http://www.serif.com/" version="1.1" viewBox="0 0 340.2 107.5">
  <!-- Generator: Adobe Illustrator 29.8.2, SVG Export Plug-In . SVG Version: 2.1.1 Build 3)  -->
  <defs>
    <style>
      .st0 {
        fill: none;
      }

      .st1, .st2 {
        fill-rule: evenodd;
      }

      .st1, .st3 {
        fill: #fff;
      }

      .st4, .st2 {
        fill: #00aeef;
      }

      .st5 {
        clip-path: url(#clippath);
      }
    </style>
    <clipPath id="clippath">
      <rect class="st0" y="-.6" width="340.2" height="110.8"/>
    </clipPath>
  </defs>
  <rect id="Prancheta1" class="st0" y="-.6" width="340.2" height="110.8"/>
  <g class="st5">
    <g>
      <g>
        <path class="st4" d="M177.43,80.72h-3l.35-2.08h8.19l-.35,2.08h-3l-1.73,9.23h-2.19l1.73-9.23Z"/>
        <path class="st4" d="M184,78.64h2.19l-.81,4.5h4.5l.81-4.5h2.19l-2.19,11.31h-2.19l.92-4.73h-4.5l-.92,4.73h-2.19l2.19-11.31Z"/>
        <path class="st4" d="M194.5,78.64h7.04l-.35,2.08h-4.85l-.46,2.65h3.58l-.35,1.96h-3.58l-.46,2.65h4.85l-.35,2.08h-7.04l2.19-11.31h0s-.23-.12-.23-.12Z"/>
        <path class="st4" d="M209.73,80.72h-3l.35-2.08h8.19l-.35,2.08h-3l-1.73,9.23h-2.19l1.73-9.23Z"/>
        <path class="st4" d="M216.3,78.64h7.04l-.35,2.08h-4.85l-.46,2.65h3.58l-.35,1.96h-3.58l-.46,2.65h4.85l-.35,2.08h-7.04l2.19-11.31s-.23-.12-.23-.12Z"/>
        <path class="st4" d="M227.49,90.29c-.92,0-1.73-.23-2.42-.58s-1.27-.92-1.62-1.62c-.35-.69-.58-1.5-.58-2.42s0-.92.12-1.38c.23-1.15.69-2.19,1.27-3.11.58-.92,1.38-1.62,2.31-2.08s1.96-.69,3.11-.69,2.54.35,3.35,1.04l-.46,2.31c-.35-.35-.81-.69-1.27-.92s-1.15-.23-1.85-.23c-1.04,0-1.96.35-2.65.92s-1.27,1.5-1.5,2.65c0,.46-.12.81-.12,1.27,0,.81.23,1.38.69,1.85.46.46,1.15.58,2.19.58s1.38,0,1.96-.23,1.15-.46,1.73-.92l-.46,2.31c-1.04.69-2.31,1.15-3.92,1.15,0,0,.12.12.12.12Z"/>
        <path class="st4" d="M234.64,78.64h2.19l-.81,4.5h4.5l.81-4.5h2.19l-2.19,11.31h-2.19l.92-4.73h-4.5l-.92,4.73h-2.19l2.19-11.31Z"/>
        <path class="st4" d="M253.22,90.29c-.92,0-1.73-.23-2.42-.58s-1.15-.92-1.62-1.5c-.35-.69-.58-1.5-.58-2.42s0-.92.12-1.38c.23-1.15.69-2.19,1.27-3.11.58-.92,1.38-1.62,2.31-2.08s1.96-.69,3-.69,1.38,0,1.96.23c.58.12,1.04.46,1.38.81l-.46,2.31c-.35-.35-.81-.69-1.27-.81-.46-.12-1.04-.23-1.73-.23-1.04,0-2.08.35-2.77.92-.81.69-1.27,1.5-1.5,2.65,0,.46-.12.81-.12,1.15,0,1.62.92,2.54,2.77,2.54s1.15-.12,1.62-.35l.46-2.19h-1.62l.35-1.85h3.81l-1.04,5.42c-1.15.69-2.42,1.15-4.04,1.15h.12,0Z"/>
        <path class="st4" d="M260.49,78.64h4.38c.92,0,1.62.23,2.19.69s.81,1.15.81,2.08v.92c-.12.81-.46,1.62-.92,2.19s-1.04,1.04-1.73,1.27l1.15,4.15h-2.31l-1.04-3.81h-1.73l-.69,3.81h-2.19l2.19-11.31h-.12,0ZM263.48,84.06c.69,0,1.15-.12,1.5-.35.35-.23.58-.69.69-1.27v-.58c0-.46-.12-.69-.35-.81s-.69-.23-1.15-.23h-1.85l-.69,3.35h1.85v-.12Z"/>
        <path class="st4" d="M272.71,90.29c-.92,0-1.62-.23-2.31-.58s-1.15-.92-1.62-1.62c-.35-.69-.58-1.5-.58-2.42s0-.92.12-1.38c.23-1.15.69-2.19,1.27-3.11s1.38-1.62,2.31-2.08,1.96-.69,3-.69,1.62.23,2.31.58,1.15.92,1.62,1.62c.35.69.58,1.5.58,2.42s0,.92-.12,1.38c-.23,1.15-.69,2.19-1.27,3.11-.58.92-1.38,1.62-2.31,2.08s-1.96.69-3,.69h0ZM273.18,87.99c.58,0,1.15-.12,1.73-.46s1.04-.69,1.38-1.27c.35-.58.69-1.15.81-1.96,0-.46.12-.81.12-1.04,0-.81-.23-1.38-.69-1.85s-1.04-.69-1.96-.69-1.15.12-1.73.46-1.04.69-1.38,1.27c-.35.58-.69,1.15-.81,1.96,0,.46-.12.81-.12,1.15,0,.81.23,1.38.69,1.85s1.04.69,1.96.69h0v-.12Z"/>
        <path class="st4" d="M283.79,90.29c-.81,0-1.5-.12-2.08-.46s-.92-.69-1.27-1.27c-.23-.58-.46-1.15-.46-1.85s0-.69.12-1.15l1.27-6.81h2.19l-1.27,6.81v.92c0,.58.12.92.46,1.27.35.23.81.35,1.5.35s1.27-.23,1.73-.69.81-1.04.92-1.85l1.27-6.81h2.19l-1.27,6.81c-.35,1.62-.92,2.77-1.73,3.58s-2.08,1.15-3.69,1.15h.12Z"/>
        <path class="st4" d="M291.98,78.64h4.27c.92,0,1.73.23,2.31.81s.92,1.27.92,2.19,0,.58,0,.81c-.23,1.27-.69,2.19-1.5,2.88-.81.69-1.73.92-3,.92h-2.08l-.69,3.69h-2.19l2.19-11.31s-.23,0-.23,0ZM294.86,84.3c.69,0,1.15-.12,1.5-.35.35-.23.58-.69.69-1.38v-.58c0-.46-.12-.81-.35-.92-.23-.23-.69-.23-1.27-.23h-1.73l-.69,3.58h1.73l.12-.12Z"/>
        <path class="st1" d="M163.12,59.49v-26.65h5.77v10.27h0v15c0,2.08.46,3.69,1.5,4.61,1.04,1.04,2.54,1.5,4.73,1.5s3.11-.35,4.5-1.04c.58-.35,1.04-.58,1.62-1.04-.92-1.85-1.38-4.04-1.38-6.34s.58-4.96,1.73-6.92,2.77-3.58,4.73-4.73c1.96-1.15,4.15-1.73,6.69-1.73s4.96.58,6.46,1.85c1.62,1.15,2.77,2.77,3.46,4.85.12.46.35.92.46,1.38v-7.5h5.77v25.49h-5.31v-.92c-.23-.69-.23-1.5-.35-2.42v-4.85c-.35,1.5-1.04,3-1.96,4.27-.92,1.38-2.08,2.42-3.46,3.23-1.5.81-3.23,1.27-5.31,1.27s-4.5-.58-6.46-1.73c-1.38-.81-2.54-1.85-3.46-3-.46.69-.92,1.27-1.62,1.85-.92.92-2.08,1.62-3.35,2.08-1.27.46-2.77.81-4.27.81s-2.88-.23-4.15-.58c-.12,0-.23,0-.35-.12v.23-.23c-1.15-.35-2.08-.92-2.88-1.73-.92-.81-1.62-1.85-2.08-3.11-.46-1.15-.69-2.54-.69-4.15h0l-.35.12h0ZM203.27,55.92c0-1.85-.35-3.35-1.04-4.61-.69-1.27-1.73-2.31-3.11-3s-3-1.04-4.85-1.04c-2.77,0-4.85.81-6.34,2.42s-2.31,3.69-2.31,6.23.35,3.23,1.15,4.5c.69,1.27,1.73,2.31,3,3s2.77,1.04,4.5,1.04,3.58-.35,4.85-1.15,2.42-1.73,3.11-3.11c.69-1.27,1.04-2.77,1.04-4.38h0v.12ZM210.19,54.65c0-3.58,1.04-6.46,3.11-8.77,2.08-2.19,5.08-3.35,8.88-3.35s4.96.46,6.81,1.5c1.85.92,3.35,2.31,4.27,4.15,1.04,1.85,1.5,3.92,1.5,6.46h0v14.07h-5.77v-14.07h0c0-1.38-.23-2.42-.81-3.46-.58-.92-1.27-1.73-2.31-2.19s-2.19-.81-3.58-.81c-2.08,0-3.58.58-4.73,1.85-1.15,1.15-1.73,2.77-1.73,4.61h0v14.07h-5.77v-14.07h.12ZM258.99,60.42c-.35,1.5-1.04,3-1.96,4.27-.92,1.38-2.08,2.42-3.46,3.23-1.5.81-3.23,1.27-5.31,1.27s-4.5-.58-6.46-1.73c-1.96-1.15-3.46-2.65-4.61-4.73-1.15-1.96-1.73-4.27-1.73-6.92s.58-4.96,1.62-6.92c1.15-1.96,2.65-3.58,4.5-4.73,1.96-1.15,4.15-1.73,6.58-1.73s3.92.35,5.42,1.04c1.5.69,2.65,1.62,3.46,2.88.81,1.15,1.5,2.54,1.85,4.15v-17.77h5.77v35.76h-5.31c0-.81-.23-1.73-.23-2.88s-.12-2.19-.12-3.11v-2.19h0v.12h0ZM258.99,55.92c0-1.85-.35-3.35-1.04-4.61-.69-1.27-1.73-2.31-3.11-3s-3-1.04-4.85-1.04c-2.77,0-4.85.81-6.34,2.42-1.5,1.62-2.31,3.69-2.31,6.23s0,.12,0,.23c0,1.62.35,3,1.15,4.27.69,1.27,1.73,2.31,3,3s2.77,1.04,4.5,1.04,3.58-.35,4.85-1.15,2.42-1.73,3.11-3.11c.69-1.27,1.04-2.77,1.04-4.38v.12ZM301.55,54.42v14.3h-5.77v-25.49h5.77v7.5c.23-.69.46-1.5.92-2.42s1.04-1.85,1.73-2.65,1.62-1.62,2.77-2.08c1.04-.58,2.31-.81,3.81-.81v5.42c-1.85,0-3.46.35-4.73,1.15s-2.42,1.73-3.11,2.88c-.58.81-1.04,1.62-1.27,2.31h0l-.12-.12h0ZM280.33,68.95c-2.88,0-5.42-.58-7.61-1.62s-4.04-2.54-5.31-4.5-1.96-4.38-1.96-7.15.69-5.19,1.96-7.27c1.27-1.96,3.11-3.58,5.31-4.61s4.85-1.62,7.61-1.62,5.42.58,7.61,1.62,3.92,2.54,5.31,4.61c1.27,1.96,1.96,4.38,1.96,7.27s-.69,5.19-1.96,7.15-3,3.46-5.31,4.5-4.73,1.62-7.61,1.62ZM289.1,55.92c0-1.85-.35-3.35-1.04-4.61s-1.73-2.31-3.11-3-3-1.04-4.85-1.04c-2.77,0-4.85.81-6.34,2.42-1.5,1.62-2.31,3.69-2.31,6.23s.35,3.23,1.15,4.5c.69,1.27,1.73,2.31,3,3s2.77,1.04,4.5,1.04,3.58-.35,4.85-1.15,2.42-1.73,3.11-3.11c.69-1.27,1.04-2.77,1.04-4.38h0v.12Z"/>
        <path class="st2" d="M303.63,9.31h36.57l-23.3,38.88v-18h-17.77l4.5-20.88h0ZM307.32,13.46l-2.77,12.11h15.23v8.19l11.65-20.3h-24.11Z"/>
      </g>
      <g>
        <path class="st3" d="M4.73,53.96c2.31,0,4.04.46,5.08,1.38,1.04.92,1.62,2.19,1.62,3.92s-.12,1.5-.35,2.19c-.23.69-.69,1.27-1.27,1.85s-1.27.92-2.19,1.27-1.96.46-3.35.46h-2.19v7.04H0v-18h4.73s0-.12,0-.12ZM4.5,55.8h-2.42v7.38h1.96c1.15,0,2.08-.12,2.88-.35s1.38-.69,1.73-1.15c.35-.58.58-1.27.58-2.19s-.35-2.08-1.15-2.65-1.96-.92-3.58-.92v-.12Z"/>
        <path class="st3" d="M26.53,65.15c0,1.15-.12,2.08-.46,3-.23.92-.69,1.62-1.27,2.19s-1.15,1.04-1.96,1.38c-.81.35-1.62.46-2.65.46s-1.73-.12-2.54-.46-1.38-.81-1.96-1.38-.92-1.38-1.27-2.19c-.35-.92-.46-1.85-.46-3s.23-2.77.81-3.81c.46-1.04,1.27-1.85,2.19-2.42.92-.58,2.08-.81,3.35-.81s2.31.23,3.23.81,1.62,1.38,2.19,2.42c.46,1.04.81,2.31.81,3.81ZM16.15,65.15c0,1.04.12,2.08.46,2.77.23.81.69,1.38,1.38,1.85.58.46,1.38.69,2.31.69s1.73-.23,2.31-.69,1.04-1.04,1.38-1.85c.23-.81.46-1.73.46-2.77s-.12-1.96-.46-2.77c-.23-.81-.69-1.38-1.38-1.85-.58-.46-1.38-.69-2.31-.69-1.38,0-2.42.46-3.11,1.38-.69.92-.92,2.19-.92,3.81,0,0-.12.12-.12.12Z"/>
        <path class="st3" d="M40.95,71.95l-2.42-7.84c0-.35-.23-.69-.35-1.04,0-.35-.23-.69-.23-.92,0-.35-.12-.58-.23-.81,0-.23,0-.46-.12-.69h0c0,.23,0,.46-.12.69,0,.23-.12.58-.23.81,0,.35-.12.58-.23.92,0,.35-.23.69-.35,1.04l-2.54,7.84h-2.31l-3.69-13.5h2.08l1.96,7.5c.12.46.23.92.35,1.5.12.46.23.92.35,1.38,0,.46.12.81.23,1.15h0c0-.23,0-.46.12-.69,0-.23.12-.58.23-.92,0-.35.12-.69.23-.92,0-.35.23-.58.23-.92l2.54-7.84h2.19l2.42,7.84c.12.35.23.81.35,1.27s.23.81.35,1.27.12.81.23,1.04h0c0-.23,0-.58.23-1.04,0-.46.23-.81.35-1.38.12-.46.23-1.04.35-1.5l1.96-7.5h2.08l-3.69,13.5h-2.42s.12-.23.12-.23Z"/>
        <path class="st3" d="M54.8,58.22c1.15,0,2.19.23,3,.81.81.46,1.5,1.27,1.85,2.19s.69,1.96.69,3.23v1.27h-9.34c0,1.62.46,2.77,1.15,3.58.81.81,1.85,1.27,3.23,1.27s1.62,0,2.31-.23c.69-.12,1.38-.35,2.08-.69v1.85c-.69.35-1.38.58-2.08.69s-1.5.23-2.42.23c-1.27,0-2.42-.23-3.35-.81s-1.73-1.27-2.19-2.31c-.58-1.04-.81-2.31-.81-3.81s.23-2.77.69-3.81c.46-1.04,1.15-1.85,2.08-2.42s1.96-.81,3.11-.81v-.23ZM54.68,59.95c-1.04,0-1.96.35-2.65,1.04s-1.04,1.73-1.15,3h7.15c0-.81-.12-1.5-.35-2.08-.23-.58-.58-1.04-1.15-1.38-.46-.35-1.15-.46-1.85-.46,0,0,0-.12,0-.12Z"/>
        <path class="st3" d="M69.91,58.22h.81c.35,0,.58,0,.81.12l-.23,1.85c-.23,0-.46,0-.69-.12h-.81c-.58,0-1.04,0-1.5.35-.46.23-.92.58-1.27.92s-.69.92-.81,1.5c-.23.58-.35,1.15-.35,1.85v7.27h-2.08v-13.5h1.73l.23,2.54h0c.23-.46.58-.92,1.04-1.38.35-.46.81-.69,1.38-1.04.58-.23,1.15-.35,1.73-.35h0Z"/>
        <path class="st3" d="M79.25,58.22c1.15,0,2.19.23,3,.81.81.46,1.5,1.27,1.85,2.19s.69,1.96.69,3.23v1.27h-9.34c0,1.62.46,2.77,1.15,3.58.81.81,1.85,1.27,3.23,1.27s1.62,0,2.31-.23c.69-.12,1.38-.35,2.08-.69v1.85c-.69.35-1.38.58-2.08.69-.69.12-1.5.23-2.42.23-1.27,0-2.42-.23-3.35-.81s-1.73-1.27-2.19-2.31c-.58-1.04-.81-2.31-.81-3.81s.23-2.77.69-3.81c.46-1.04,1.15-1.85,2.08-2.42s1.96-.81,3.11-.81v-.23ZM79.25,59.95c-1.04,0-1.96.35-2.65,1.04s-1.04,1.73-1.15,3h7.15c0-.81-.12-1.5-.35-2.08s-.58-1.04-1.15-1.38c-.46-.35-1.15-.46-1.85-.46,0,0,0-.12,0-.12Z"/>
        <path class="st3" d="M92.98,72.18c-1.73,0-3.11-.58-4.04-1.73s-1.5-2.88-1.5-5.19.46-4.04,1.5-5.31c1.04-1.15,2.42-1.73,4.04-1.73s1.38,0,1.85.23c.58.23,1.04.46,1.38.81.35.35.69.69.92,1.04h.12v-7.5h2.08v19.15h-1.62l-.35-1.96h0c-.23.35-.58.81-.92,1.15s-.81.58-1.38.81-1.15.35-1.85.35c0,0-.23-.12-.23-.12ZM93.33,70.57c1.5,0,2.42-.46,3.11-1.27.58-.81.92-2.08.92-3.69v-.35c0-1.73-.23-3-.81-3.92-.58-.92-1.62-1.38-3.11-1.38s-2.19.46-2.77,1.5c-.58.92-.92,2.31-.92,3.92s.35,2.88.92,3.81,1.62,1.38,2.88,1.38h-.23Z"/>
        <path class="st3" d="M112.25,52.8v7.61h0c.35-.58.92-1.15,1.62-1.5.69-.46,1.62-.58,2.65-.58,1.73,0,3,.58,4.04,1.73s1.5,2.88,1.5,5.19-.23,2.77-.69,3.81c-.46,1.04-1.15,1.85-1.96,2.31-.81.58-1.85.81-3,.81s-1.96-.23-2.65-.58-1.27-.92-1.62-1.5h-.12l-.46,1.85h-1.5v-19.15s2.19,0,2.19,0ZM116.17,59.95c-.92,0-1.73.23-2.31.58s-1.04.92-1.27,1.73-.35,1.73-.35,2.88h0c0,1.85.23,3.11.81,4.04s1.62,1.38,3.11,1.38,2.19-.46,2.88-1.38c.58-.92.92-2.19.92-3.92s-.35-3-.92-3.92-1.62-1.27-2.88-1.27h0s0-.12,0-.12Z"/>
        <path class="st3" d="M123.44,58.45h2.19l3,7.84c.12.46.35.92.46,1.27.12.46.23.81.35,1.27,0,.35.23.81.23,1.15h0c0-.46.23-.92.46-1.62s.46-1.38.69-2.08l2.77-7.84h2.19l-5.88,15.46c-.35.81-.69,1.5-1.04,2.19-.46.58-.92,1.04-1.5,1.38s-1.27.46-2.19.46h-1.04c-.35,0-.58,0-.81-.12v-1.62h1.5c.46,0,.92,0,1.27-.35.35-.23.69-.46.92-.81s.46-.81.69-1.27l.69-1.85-5.42-13.5h.46,0Z"/>
      </g>
    </g>
  </g>
</svg>